<svg width="980" height="600" viewBox="0 0 980 600" fill="none" xmlns="http://www.w3.org/2000/svg">
  <rect width="980" height="600" rx="28" fill="#0B1123"/>
  <rect x="28" y="28" width="924" height="56" rx="16" fill="#111D36"/>
  <rect x="48" y="46" width="90" height="20" rx="8" fill="#1D2E52"/>
  <rect x="158" y="46" width="128" height="20" rx="8" fill="#1D2E52"/>
  <rect x="306" y="46" width="118" height="20" rx="8" fill="#1D2E52"/>
  <rect x="444" y="46" width="104" height="20" rx="8" fill="#1D2E52"/>
  <rect x="568" y="46" width="96" height="20" rx="8" fill="#1D2E52"/>
  <rect x="700" y="40" width="220" height="32" rx="14" fill="#15284B"/>
  <rect x="28" y="104" width="300" height="160" rx="22" fill="#122443"/>
  <rect x="48" y="130" width="100" height="18" rx="9" fill="#35CBBE"/>
  <rect x="48" y="160" width="200" height="14" rx="7" fill="#57739F"/>
  <rect x="48" y="184" width="240" height="14" rx="7" fill="#57739F"/>
  <rect x="48" y="218" width="140" height="30" rx="12" fill="#1E7D76"/>
  <rect x="350" y="104" width="602" height="468" rx="22" fill="#101D37"/>
  <rect x="372" y="128" width="260" height="88" rx="16" fill="#132748"/>
  <rect x="650" y="128" width="280" height="88" rx="16" fill="#132748"/>
  <rect x="372" y="236" width="558" height="92" rx="16" fill="#122443"/>
  <rect x="372" y="350" width="558" height="92" rx="16" fill="#122443"/>
  <rect x="372" y="464" width="558" height="88" rx="16" fill="#122443"/>
  <circle cx="902" cy="56" r="10" fill="#35CBBE"/>
</svg>
